<svg width="76" height="76" viewBox="0 0 76 76" fill="none" xmlns="http://www.w3.org/2000/svg">
<rect width="76" height="76" rx="38" fill="#FFE812"/>
<path d="M38 20C28.0588 20 20 26.8857 20 35.3795C20 40.871 23.3691 45.6895 28.4372 48.4103C28.1614 49.4408 26.6654 55.0393 26.6058 55.4791C26.6058 55.4791 26.57 55.8096 26.7675 55.9356C26.965 56.0617 27.1972 55.9638 27.1972 55.9638C27.7635 55.878 33.7643 51.3103 34.8029 50.5172C35.8405 50.6764 36.9089 50.7591 38 50.7591C47.9412 50.7591 56 43.8736 56 35.3795C56 26.8857 47.9412 20 38 20Z" fill="black"/>
<path d="M28.047 40.7481C27.4743 40.7481 27.0086 40.266 27.0086 39.6734V32.988H25.3882C24.8262 32.988 24.3691 32.4936 24.3691 31.8861C24.3691 31.2786 24.8264 30.7842 25.3882 30.7842H30.7058C31.2678 30.7842 31.7249 31.2786 31.7249 31.8861C31.7249 32.4936 31.2676 32.988 30.7058 32.988H29.0855V39.6734C29.0855 40.266 28.6197 40.7481 28.047 40.7481ZM37.1529 40.7334C36.7199 40.7334 36.3886 40.5429 36.2888 40.2364L35.7746 38.7776L32.6079 38.7774L32.0934 40.2372C31.9939 40.5431 31.6628 40.7334 31.2297 40.7334C31.002 40.7337 30.7768 40.6807 30.5696 40.5781C30.2834 40.435 30.0082 40.0415 30.3235 38.9802L32.8075 31.8951C32.9825 31.3562 33.514 30.8011 34.1904 30.7844C34.8687 30.8009 35.4002 31.3562 35.5755 31.8962L38.0585 38.9781C38.3745 40.0419 38.0993 40.4356 37.8131 40.5783C37.6058 40.6807 37.3807 40.7336 37.1529 40.7334ZM35.2285 36.7843L34.1913 33.5911L33.154 36.7843H35.2285ZM39.7297 40.584C39.1809 40.584 38.7345 40.1211 38.7345 39.5524V31.9095C38.7345 31.2889 39.2101 30.7842 39.7946 30.7842C40.3791 30.7842 40.8547 31.2889 40.8547 31.9095V38.5208H43.0614C43.6103 38.5208 44.0566 38.9837 44.0566 39.5524C44.0566 40.1211 43.6103 40.584 43.0614 40.584H39.7297ZM45.4991 40.7334C44.9264 40.7334 44.4606 40.2287 44.4606 39.6081V31.9095C44.4606 31.2889 44.9264 30.7842 45.4991 30.7842C46.0718 30.7842 46.5375 31.2889 46.5375 31.9095V34.3282L49.4348 31.1885C49.5839 31.0271 49.7886 30.9382 50.0108 30.9382C50.2701 30.9382 50.5304 31.0593 50.7255 31.2705C50.9074 31.4674 51.0159 31.7208 51.0308 31.984C51.0458 32.2494 50.9643 32.4926 50.8016 32.6691L48.4351 35.2332L50.9913 38.9029C51.0738 39.0206 51.134 39.1549 51.1682 39.2981C51.2024 39.4412 51.2101 39.5902 51.1907 39.7366C51.1722 39.883 51.127 40.024 51.0579 40.1514C50.9887 40.2788 50.8969 40.3901 50.7878 40.4787C50.6082 40.6266 50.3887 40.7065 50.1631 40.7059C50.0022 40.7067 49.8434 40.6666 49.6993 40.589C49.5553 40.5113 49.43 40.3981 49.3336 40.2585L46.8982 36.7618L46.5379 37.1523V39.6075C46.5375 39.906 46.428 40.1922 46.2333 40.4032C46.0385 40.6143 45.7745 40.733 45.4991 40.7334Z" fill="#FFE812"/>
</svg>
