<svg width="76" height="76" viewBox="0 0 76 76" fill="none" xmlns="http://www.w3.org/2000/svg">
<rect width="76" height="76" rx="38" fill="#2AABEE"/>
<path fill-rule="evenodd" clip-rule="evenodd" d="M27.0499 36.8117C34.5263 33.5648 39.5035 31.4073 42.0027 30.3606C49.1159 27.3914 50.6112 26.8788 51.5725 26.8574C51.7861 26.8574 52.256 26.9001 52.5764 27.1565C52.8328 27.3701 52.8969 27.6478 52.9396 27.8614C52.9823 28.075 53.025 28.5236 52.9823 28.8654C52.5978 32.924 50.9316 42.7714 50.0772 47.3C49.7141 49.2225 49.0091 49.8633 48.3256 49.9274C46.8303 50.0556 45.6982 48.9448 44.267 48.0049C42.0027 46.531 40.7424 45.6125 38.5422 44.1599C36.0002 42.4937 37.645 41.5752 39.0976 40.0799C39.4821 39.6954 46.0399 33.7143 46.1681 33.1803C46.1895 33.1162 46.1895 32.8599 46.0399 32.7317C45.8904 32.6036 45.6768 32.6463 45.5059 32.689C45.271 32.7317 41.6823 35.1242 34.6972 39.845C33.6719 40.5499 32.7534 40.8917 31.9203 40.8703C31.0017 40.8489 29.2501 40.3576 27.9257 39.9304C26.3237 39.4177 25.042 39.14 25.1488 38.2429C25.2129 37.7729 25.8537 37.303 27.0499 36.8117Z" fill="white"/>
</svg>
