<svg width="76" height="76" viewBox="0 0 76 76" fill="none" xmlns="http://www.w3.org/2000/svg">
<rect width="76" height="76" rx="38" fill="#2AB540"/>
<path d="M20.1503 37.8384C20.149 40.9821 20.9741 44.0513 22.5431 46.7566L20 56L29.5025 53.5194C32.1204 54.941 35.0679 55.6897 38.068 55.6909H38.0754C47.954 55.6909 55.9957 47.6876 56 37.8519C56.0019 33.0853 54.1385 28.603 50.7549 25.2315C47.3708 21.86 42.8703 20.0018 38.0754 20C28.1951 20 20.1546 28.0021 20.1503 37.8384ZM25.8091 46.2906L25.4541 45.7297C23.9624 43.3691 23.1751 40.6404 23.1764 37.839C23.1795 29.6639 29.8624 23.0126 38.0804 23.0126C42.0601 23.0144 45.7999 24.5586 48.6132 27.3606C51.4259 30.1632 52.9739 33.8887 52.9733 37.8501C52.9696 46.0258 46.2866 52.6777 38.0748 52.6777H38.0693C35.3957 52.6759 32.7735 51.9617 30.4864 50.6109L29.9422 50.2895L24.3032 51.7616L25.8091 46.2906Z" fill="white"/>
<path d="M33.5943 30.3803C33.2585 29.6378 32.906 29.623 32.5862 29.6101C32.3252 29.599 32.0265 29.5996 31.7278 29.5996C31.4291 29.5996 30.9436 29.7111 30.5336 30.1574C30.1229 30.6038 28.9658 31.6825 28.9658 33.8756C28.9658 36.0693 30.5707 38.1891 30.7946 38.4871C31.0185 38.7845 33.893 43.4299 38.4448 45.2172C42.2285 46.7022 42.9978 46.4073 43.8191 46.3328C44.6404 46.2583 46.4692 45.2548 46.8421 44.2136C47.2157 43.1725 47.2157 42.2804 47.1037 42.0938C46.9918 41.9079 46.6931 41.7964 46.2453 41.5736C45.7976 41.3507 43.5953 40.272 43.1852 40.123C42.7746 39.9746 42.4759 39.9001 42.1772 40.3465C41.8784 40.7922 41.0207 41.7964 40.7597 42.0938C40.4987 42.3918 40.2371 42.4287 39.7893 42.2059C39.3416 41.9824 37.8987 41.512 36.1875 39.9931C34.8559 38.8109 33.9573 37.3518 33.6957 36.9054C33.4347 36.4596 33.6679 36.2183 33.8924 35.996C34.0934 35.7965 34.3402 35.4751 34.5647 35.2153C34.7879 34.9549 34.8627 34.7689 35.0118 34.4716C35.1615 34.1742 35.0866 33.9138 34.9747 33.6903C34.8627 33.4668 33.9926 31.262 33.5943 30.3803Z" fill="white"/>
</svg>
